# 3ds Max Wavefront OBJ Exporter v0.97b - (c)2007 guruware
# File Created: 02.11.2020 14:56:10

mtllib Light_Side_01.mtl

#
# object Plane001
#

v  -200.0000 -569.8191 -56.9326
v  -200.0000 -572.9578 2.9578
v  200.0000 -572.9578 2.9578
v  200.0000 -569.8191 -56.9326
v  -200.0000 -560.4373 -116.1668
v  200.0000 -560.4373 -116.1668
v  -200.0000 -544.9153 -174.0959
v  200.0000 -544.9153 -174.0959
v  -200.0000 -523.4230 -230.0851
v  200.0000 -523.4230 -230.0851
v  -200.0000 -496.1960 -283.5211
v  200.0000 -496.1960 -283.5211
v  -200.0000 -463.5326 -333.8184
v  200.0000 -463.5326 -333.8184
v  -200.0000 -425.7906 -380.4258
v  200.0000 -425.7906 -380.4258
v  -200.0000 -383.3836 -422.8328
v  200.0000 -383.3836 -422.8328
v  -200.0000 -336.7761 -460.5748
v  200.0000 -336.7761 -460.5748
v  -200.0000 -286.4789 -493.2382
v  200.0000 -286.4789 -493.2382
v  -200.0000 -233.0429 -520.4652
v  200.0000 -233.0429 -520.4652
v  -200.0000 -177.0537 -541.9575
v  200.0000 -177.0537 -541.9575
v  -200.0000 -119.1246 -557.4795
v  200.0000 -119.1246 -557.4795
v  -200.0000 -59.8904 -566.8613
v  200.0000 -59.8904 -566.8613
v  -200.0000 0.0000 -570.0000
v  200.0000 0.0000 -570.0000
v  -200.0000 59.8904 -566.8613
v  200.0000 59.8904 -566.8613
v  -200.0000 119.1246 -557.4795
v  200.0000 119.1246 -557.4795
v  -200.0000 177.0537 -541.9575
v  200.0000 177.0537 -541.9575
v  -200.0000 233.0430 -520.4652
v  200.0000 233.0430 -520.4652
v  -200.0000 286.4789 -493.2382
v  200.0000 286.4789 -493.2382
v  -200.0000 336.7762 -460.5748
v  200.0000 336.7762 -460.5748
v  -200.0000 383.3836 -422.8328
v  200.0000 383.3836 -422.8328
v  -200.0000 425.7906 -380.4258
v  200.0000 425.7906 -380.4258
v  -200.0000 463.5326 -333.8184
v  200.0000 463.5326 -333.8183
v  -200.0000 496.1960 -283.5211
v  200.0000 496.1960 -283.5211
v  -200.0000 523.4230 -230.0851
v  200.0000 523.4230 -230.0851
v  -200.0000 544.9152 -174.0959
v  200.0000 544.9152 -174.0959
v  -200.0000 560.4373 -116.1668
v  200.0000 560.4373 -116.1668
v  -200.0000 569.8190 -56.9326
v  200.0000 569.8190 -56.9326
v  -200.0000 572.9577 2.9578
v  200.0000 572.9578 2.9578
# 62 vertices

vn 0.0000 0.9945 0.1045
vn 0.0000 0.9986 0.0523
vn 0.0000 0.9781 0.2079
vn 0.0000 0.9511 0.3090
vn 0.0000 0.9135 0.4067
vn 0.0000 0.8660 0.5000
vn 0.0000 0.8090 0.5878
vn 0.0000 0.7431 0.6691
vn -0.0000 0.6691 0.7431
vn 0.0000 0.5878 0.8090
vn 0.0000 0.5000 0.8660
vn 0.0000 0.4067 0.9135
vn -0.0000 0.3090 0.9511
vn 0.0000 0.2079 0.9781
vn 0.0000 0.1045 0.9945
vn 0.0000 -0.0000 1.0000
vn 0.0000 -0.1045 0.9945
vn 0.0000 -0.2079 0.9781
vn -0.0000 -0.3090 0.9511
vn 0.0000 -0.4067 0.9135
vn 0.0000 -0.5000 0.8660
vn 0.0000 -0.5878 0.8090
vn -0.0000 -0.6691 0.7431
vn 0.0000 -0.7431 0.6691
vn -0.0000 -0.8090 0.5878
vn 0.0000 -0.8660 0.5000
vn 0.0000 -0.9135 0.4067
vn 0.0000 -0.9511 0.3090
vn 0.0000 -0.9781 0.2079
vn 0.0000 -0.9945 0.1045
vn 0.0000 -0.9986 0.0523
# 31 vertex normals

vt 0.0000 0.0333 0.0000
vt 0.0000 0.0000 0.0000
vt 1.0000 0.0000 0.0000
vt 1.0000 0.0333 0.0000
vt 0.0000 0.0667 0.0000
vt 1.0000 0.0667 0.0000
vt 0.0000 0.1000 0.0000
vt 1.0000 0.1000 0.0000
vt 0.0000 0.1333 0.0000
vt 1.0000 0.1333 0.0000
vt 0.0000 0.1667 0.0000
vt 1.0000 0.1667 0.0000
vt 0.0000 0.2000 0.0000
vt 1.0000 0.2000 0.0000
vt 0.0000 0.2333 0.0000
vt 1.0000 0.2333 0.0000
vt 0.0000 0.2667 0.0000
vt 1.0000 0.2667 0.0000
vt 0.0000 0.3000 0.0000
vt 1.0000 0.3000 0.0000
vt 0.0000 0.3333 0.0000
vt 1.0000 0.3333 0.0000
vt 0.0000 0.3667 0.0000
vt 1.0000 0.3667 0.0000
vt 0.0000 0.4000 0.0000
vt 1.0000 0.4000 0.0000
vt 0.0000 0.4333 0.0000
vt 1.0000 0.4333 0.0000
vt 0.0000 0.4667 0.0000
vt 1.0000 0.4667 0.0000
vt 0.0000 0.5000 0.0000
vt 1.0000 0.5000 0.0000
vt 0.0000 0.5333 0.0000
vt 1.0000 0.5333 0.0000
vt 0.0000 0.5667 0.0000
vt 1.0000 0.5667 0.0000
vt 0.0000 0.6000 0.0000
vt 1.0000 0.6000 0.0000
vt 0.0000 0.6333 0.0000
vt 1.0000 0.6333 0.0000
vt 0.0000 0.6667 0.0000
vt 1.0000 0.6667 0.0000
vt 0.0000 0.7000 0.0000
vt 1.0000 0.7000 0.0000
vt 0.0000 0.7333 0.0000
vt 1.0000 0.7333 0.0000
vt 0.0000 0.7667 0.0000
vt 1.0000 0.7667 0.0000
vt 0.0000 0.8000 0.0000
vt 1.0000 0.8000 0.0000
vt 0.0000 0.8333 0.0000
vt 1.0000 0.8333 0.0000
vt 0.0000 0.8667 0.0000
vt 1.0000 0.8667 0.0000
vt 0.0000 0.9000 0.0000
vt 1.0000 0.9000 0.0000
vt 0.0000 0.9333 0.0000
vt 1.0000 0.9333 0.0000
vt 0.0000 0.9667 0.0000
vt 1.0000 0.9667 0.0000
vt 0.0000 1.0000 0.0000
vt 1.0000 1.0000 0.0000
# 62 texture coords

o Plane001
g Plane001
usemtl wire_227153153
s 1
f 1/1/1 2/2/2 3/3/2 4/4/1 
f 5/5/3 1/1/1 4/4/1 6/6/3 
f 7/7/4 5/5/3 6/6/3 8/8/4 
f 9/9/5 7/7/4 8/8/4 10/10/5 
f 11/11/6 9/9/5 10/10/5 12/12/6 
f 13/13/7 11/11/6 12/12/6 14/14/7 
f 15/15/8 13/13/7 14/14/7 16/16/8 
f 17/17/9 15/15/8 16/16/8 18/18/9 
f 19/19/10 17/17/9 18/18/9 20/20/10 
f 21/21/11 19/19/10 20/20/10 22/22/11 
f 23/23/12 21/21/11 22/22/11 24/24/12 
f 25/25/13 23/23/12 24/24/12 26/26/13 
f 27/27/14 25/25/13 26/26/13 28/28/14 
f 29/29/15 27/27/14 28/28/14 30/30/15 
f 31/31/16 29/29/15 30/30/15 32/32/16 
f 33/33/17 31/31/16 32/32/16 34/34/17 
f 35/35/18 33/33/17 34/34/17 36/36/18 
f 37/37/19 35/35/18 36/36/18 38/38/19 
f 39/39/20 37/37/19 38/38/19 40/40/20 
f 41/41/21 39/39/20 40/40/20 42/42/21 
f 43/43/22 41/41/21 42/42/21 44/44/22 
f 45/45/23 43/43/22 44/44/22 46/46/23 
f 47/47/24 45/45/23 46/46/23 48/48/24 
f 49/49/25 47/47/24 48/48/24 50/50/25 
f 51/51/26 49/49/25 50/50/25 52/52/26 
f 53/53/27 51/51/26 52/52/26 54/54/27 
f 55/55/28 53/53/27 54/54/27 56/56/28 
f 57/57/29 55/55/28 56/56/28 58/58/29 
f 59/59/30 57/57/29 58/58/29 60/60/30 
f 61/61/31 59/59/30 60/60/30 62/62/31 
# 30 polygons

